<svg xmlns="http://www.w3.org/2000/svg" version="1.0" preserveAspectRatio="xMidYMid meet" viewBox="21.83 29.09 58.17 47.9">
<g transform="translate(0.000000,101.000000) scale(0.100000,-0.100000)" fill="#000000" stroke="none">
<path d="M363 713 c-7 -2 -13 -12 -13 -21 0 -14 11 -17 70 -17 58 0 70 3 70 16 0 9 -7 20 -16 23 -18 7 -93 7 -111 -1z"/>
<path d="M630 662 c-34 -28 -19 -40 34 -28 38 9 43 13 35 28 -12 23 -41 23 -69 0z"/>
<path d="M350 650 c0 -6 30 -10 70 -10 40 0 70 4 70 10 0 6 -30 10 -70 10 -40 0 -70 -4 -70 -10z"/>
<path d="M238 639 c-36 -21 -21 -39 32 -39 42 0 50 3 50 19 0 29 -47 41 -82 20z"/>
<path d="M533 633 c-28 -11 -13 -33 22 -33 24 0 35 5 35 15 0 8 -4 15 -9 15 -5 0 -15 2 -23 4 -7 3 -19 2 -25 -1z"/>
<path d="M418 622 l-68 -3 0 -183 c0 -158 2 -185 16 -190 23 -9 97 -7 112 2 9 7 12 52 10 193 l-3 184 -67 -3z m38 -88 c10 -82 -1 -245 -18 -255 -16 -11 -20 -11 -38 1 -12 7 -15 36 -16 147 -1 76 1 143 3 150 3 7 18 13 33 13 27 0 29 -3 36 -56z"/>
<path d="M655 616 c-27 -9 -35 -15 -25 -20 20 -8 73 7 78 22 4 14 -1 14 -53 -2z"/>
<path d="M220 445 l0 -145 50 0 50 0 0 145 0 145 -50 0 -50 0 0 -145z m70 -5 c0 -64 -3 -80 -15 -80 -12 0 -15 16 -15 80 0 64 3 80 15 80 12 0 15 -16 15 -80z"/>
<path d="M664 579 l-30 -9 35 -137 c19 -76 35 -139 35 -140 5 -8 86 22 83 31 -2 6 -19 68 -37 139 -18 70 -38 127 -44 126 -6 0 -25 -5 -42 -10z m39 -79 c3 -14 12 -50 21 -79 18 -60 20 -78 9 -67 -5 4 -8 11 -9 14 0 4 -3 14 -6 22 -4 8 -11 38 -18 65 -6 28 -13 59 -17 70 -3 14 -2 17 5 10 6 -5 13 -21 15 -35z"/>
<path d="M520 438 l0 -143 35 -1 35 -1 0 144 0 143 -35 0 -35 0 0 -142z m40 -3 c0 -63 -4 -105 -10 -105 -6 0 -10 42 -10 105 0 63 4 105 10 105 6 0 10 -42 10 -105z"/>
<path d="M753 287 c-45 -11 -48 -14 -34 -36 6 -10 19 -12 45 -7 30 6 36 11 36 31 0 14 -1 24 -2 24 -2 -1 -22 -7 -45 -12z"/>
<path d="M222 263 c2 -13 15 -19 45 -21 34 -3 44 1 53 17 10 20 8 21 -45 21 -48 0 -56 -3 -53 -17z"/>
<path d="M520 257 c0 -15 7 -18 32 -15 48 4 51 35 3 34 -27 -1 -35 -5 -35 -19z"/>
</g>
</svg>